/* XPM */
static char *af38060608ad4221a3e003ae0ac9ca6aK26KMv5cGLOJjAnU[] = {
/* columns rows colors chars-per-pixel */
"64 64 256 2 ",
"   c #05051A",
".  c #0A061C",
"X  c #05091E",
"o  c #0C091E",
"O  c #11081F",
"+  c #060B21",
"@  c #0B0D23",
"#  c #0C0E29",
"$  c #070925",
"%  c #120D23",
"&  c #1A0C25",
"*  c #1C0C2C",
"=  c #160829",
"-  c #0D1126",
";  c #06142C",
":  c #0D142B",
">  c #0C1A2D",
",  c #03162A",
"<  c #121126",
"1  c #12142B",
"2  c #1A152C",
"3  c #14192D",
"4  c #1B192F",
"5  c #1E0931",
"6  c #0C1531",
"7  c #0D1A34",
"8  c #041C3A",
"9  c #0C1D3B",
"0  c #051734",
"q  c #121631",
"w  c #1C1434",
"e  c #131C33",
"r  c #1B1C32",
"t  c #141D3A",
"y  c #1B1E3A",
"u  c #1B133B",
"i  c #0C0F38",
"p  c #220928",
"a  c #21132E",
"s  c #230D34",
"d  c #2A0C3D",
"f  c #260A38",
"g  c #33073E",
"h  c #251334",
"j  c #25143B",
"k  c #2B133B",
"l  c #231B3B",
"z  c #281A36",
"x  c #301C3E",
"c  c #0D213D",
"v  c #082338",
"b  c #1B2135",
"n  c #13223C",
"m  c #1B233C",
"M  c #132337",
"N  c #24243C",
"B  c #25253C",
"V  c #081C44",
"C  c #151A45",
"Z  c #2D0943",
"A  c #340C45",
"S  c #370849",
"D  c #2C1342",
"F  c #281747",
"G  c #351848",
"H  c #381856",
"J  c #2F0F53",
"K  c #012445",
"L  c #0C2343",
"P  c #02244B",
"I  c #0B254B",
"U  c #022A4C",
"Y  c #0C2B4D",
"T  c #0A2945",
"R  c #132443",
"E  c #1B2443",
"W  c #1B2A45",
"Q  c #142B4C",
"!  c #1B2C4C",
"~  c #17264A",
"^  c #1A334C",
"/  c #012B52",
"(  c #072957",
")  c #122D53",
"_  c #182B57",
"`  c #013254",
"'  c #01345B",
"]  c #0A345B",
"[  c #013B5C",
"{  c #0A3758",
"}  c #143254",
"|  c #1B3253",
" . c #14345A",
".. c #1B345C",
"X. c #143A5D",
"o. c #1B3A5C",
"O. c #1A3C55",
"+. c #00354B",
"@. c #232344",
"#. c #262947",
"$. c #35234A",
"%. c #25334B",
"&. c #272B55",
"*. c #362655",
"=. c #263657",
"-. c #333859",
";. c #361675",
":. c #032D62",
">. c #023D64",
",. c #0A3B64",
"<. c #063869",
"1. c #1C3C62",
"2. c #173966",
"3. c #063A75",
"4. c #153C77",
"5. c #182F62",
"6. c #223D64",
"7. c #263967",
"8. c #373767",
"9. c #312D71",
"0. c #021F65",
"q. c #45074C",
"w. c #470A55",
"e. c #550658",
"r. c #481657",
"t. c #52165C",
"y. c #41164F",
"u. c #62025A",
"i. c #52136D",
"p. c #690768",
"a. c #71076C",
"s. c #68166D",
"d. c #771679",
"f. c #6F1073",
"g. c #452E73",
"h. c #712574",
"j. c #422458",
"k. c #0E415B",
"l. c #014364",
"z. c #02456C",
"x. c #07486B",
"c. c #184569",
"v. c #03576F",
"b. c #024573",
"n. c #024A72",
"m. c #0C4A74",
"M. c #074879",
"N. c #174975",
"B. c #065778",
"V. c #18567A",
"C. c #13506D",
"Z. c #254568",
"A. c #314969",
"S. c #264876",
"D. c #25567B",
"F. c #305072",
"G. c #03627E",
"H. c #26627E",
"J. c #29445F",
"K. c #173E84",
"L. c #3F1E87",
"P. c #711D84",
"I. c #582D92",
"U. c #6D3192",
"Y. c #5B2996",
"T. c #064B85",
"R. c #085687",
"E. c #175786",
"W. c #175C96",
"Q. c #125291",
"!. c #235A85",
"~. c #345B88",
"^. c #245995",
"/. c #324B92",
"(. c #086586",
"). c #166887",
"_. c #047488",
"`. c #086798",
"'. c #196896",
"]. c #087796",
"[. c #1A779B",
"{. c #1E718F",
"}. c #266689",
"|. c #33628D",
" X c #286896",
".X c #336896",
"XX c #287599",
"oX c #357599",
"OX c #22748C",
"+X c #384DA5",
"@X c #1978A6",
"#X c #1375A7",
"$X c #277AA6",
"%X c #3579A6",
"&X c #367BB7",
"*X c #2D6BAB",
"=X c #494597",
"-X c #4B53AF",
";X c #4471AE",
":X c #525DA7",
">X c #516DC2",
",X c #8B2F90",
"<X c #841E84",
"1X c #B562B6",
"2X c #A652A8",
"3X c #BB68C3",
"4X c #BF5FC1",
"5X c #C976CD",
"6X c #CD71D0",
"7X c #C87EE8",
"8X c #138499",
"9X c #28849E",
"0X c #1884A8",
"qX c #1988AF",
"wX c #2888A8",
"eX c #3688AA",
"rX c #3788B8",
"tX c #3997BA",
"yX c #2C91B2",
"uX c #34A6BC",
"iX c #4B8FB5",
"pX c #43A3BB",
"aX c #3599C3",
"sX c #348BC4",
"dX c #39A6C7",
"fX c #35B5C6",
"gX c #3DA8D2",
"hX c #4E94C8",
"jX c #49ACD5",
"kX c #4BB5D6",
"lX c #59B9D8",
"zX c #4EACCA",
"xX c #67B8D9",
"cX c #64A8D1",
"vX c #58B4E5",
"bX c #67BBE6",
"nX c #73BDE3",
"mX c #73B3F8",
"MX c #58C4DC",
"NX c #5BC8E6",
"BX c #5AD1E6",
"VX c #5CCDF1",
"CX c #67C9E7",
"ZX c #76C5EA",
"AX c #78C8F4",
"SX c #6AD8F7",
"DX c #78D8FB",
"FX c #6AD0F0",
"GX c #76E5FD",
"HX c #69E1F8",
"JX c #86BBFA",
"KX c #D681D7",
"LX c #D383E9",
"PX c #E68EE5",
"IX c #86D6FC",
"UX c #8DCBF9",
/* pixels */
"X X X o o o O O O % p & p a s s f = f D = f Z F d Z j Z g d g g d d k s f = x = p p p p p p & O % % % % O % @ % . .   . .   o . ",
"      X o o o O O O O & p & * p 5 D 5 f f D f 5 f A f A S g G A g d d f k = = p p p p p p O % % o o o o o . . .                 ",
"X o . o o o o O O O & p s p s s = D 5 D Z d A J A A S Z S S q.y.S A A f G k p d p p p p p p & % . . O o o o o . . . . .   . .   ",
"o @ o o % % % & O & a a s s s s F Z A y.J J y.w.w.w.w.w.r.t.w.r.t.r.r.A G H k d k k h s p a & & & % % % % % % % . O o o O o o o ",
"o @ o % < % % < O & * a h h d k A D H S r.r.q.e.s.s.e.e.i.e.s.i.e.q.w.y.A D D f k k s s s h 5 & % % % % % % % % O o @ o @ o o o ",
"@ @ @ % < % & & O & * a h k k x D G A Z t.r.s.1X5X3X2Xp.i.4X3X5X2Xh.q.t.q.A G G D k k k j f w * % % % 2 % 2 < < < < o % o % o o ",
"O o % % O < & & & & * s h f d x A G A y.t.i.1X5X,X,X6X4X4X6X,X,X6X1Xe.t.t.H G D D k h j h s a a & < % % % % % % o < O o o o o o ",
"  . . . O O O O O O * * 5 p s s s d g q.g h.KXu.e.e.u.6X6Xq.u.e.u.2Xe.q.q.A d f f s s s p s & p % % % . @ . O o   o             ",
". $ . o O O O O & & * 2 5 h w f k y.G y.t.2X1Xp.a.a.a.a.p.p.a.p.u.u.u.q.y.y.k G x k z h a p a p 2 % % & % o . % < O % o o o o o ",
"$ % @ % < & < & a h h h l k F j $.k y.t.q.h.PXa.a.a.d.a.u.f.f.s.<XKXq.q.t.G G $.x x x z z a z a 4 2 2 4 2 % % 2 < < % % < % % - ",
"% @ % % < < < 2 & 2 2 h j j j j $.D G j.r.t.5X6Xa.<Xd.<Xf.p.d.s.5X1Xg e.y.j.k k z z z a a a a 2 & < < 2 % o o < < < < % o % o < ",
"@ . @ @ < < < 2 4 w j l l l l j j $.G J r.t.i.6X6Xd.,X<Xd.P.f.6X5Xq.g t.y.j.G $.x x x x z z z z 2 4 4 4 % % % 2 < < < < < < < o ",
"$ $ @ @ < < < 2 4 w h r y l u j J *.*.H H U.i.U.7X7X<X,XP.P.LXKXs.y.J H H A H F x x k k z h w 2 2 4 4 2 < O % < < % - - < - o o ",
".   . $ o @ - < < < q w u w u u C F J J H i.i.;.i.7X7Xp.s.LX6Xw.d t.Z H J J F D k g h a s a = @ % O O O . . o . % o o . . . . o ",
"+ $ + $ @ - - - w r l N F #.@.$.*.8.*.g.I.;.U.U.U.L.7X7X7X7Xp.i.g.i.;.g.*.j.J *.G G G $.x z y * 4 4 2 2 < 2 < % o o o . o . . . ",
"# - - 1 1 1 1 1 w y l B #.&.&.&.8.9.g.=X9.=XY.Y.U.U.Y.7X7XP.Y.;.g.9.=X8./.8.8.j.*.$.$.$.$.@.l w z 4 4 2 4 4 4 < 2 2 < < < < < - ",
"$ - - - < 1 4 1 r y @.E @.&.&.&.8.7./.7./.+X+X-X-X-XU.Y.i.L.L.+X/././././.7.&.8.*.$.$.#.B z a a 4 4 4 4 4 4 2 < < < < - - o o - ",
"- - - - 1 4 1 1 e u y @.E &.&.7.5.9./.^.+X>X>X^.+X-X-XY.L.L.+X+X+X-X*X/.N./.F.&.*.$.x #.B B z a B z 4 z 4 4 4 2 4 4 < < - - - - ",
"$ - - - < 1 1 < u m E #.&.&.=.7.~.D.^.cXmXUXmXmX*X>X:X+XL.+XK.>XJXUXJXUX;XN.7.8.-.$.$.#.B B B a z 4 4 4 4 < 4 < < < - - o - o - ",
"+ + - @ 1 < 1 1 # q q t t C @._ I ,.cXbX@XW.*XmXmXW.;XK.K.K.&XJXhX+XE.%XJX;XA.| #.@.m b b a 4 a 4 4 2 & < < < < o - o - X o o o ",
"X + @ - # 1 1 1 q e u C C ~ &...Z.E.CX@XT.T.T.`.DXhX@X&X&XhXIXvX^.T.T.b.nX;XZ.8.8.-.%.%.B B B B b b 4 4 4 4 4 < - > < < > - - o ",
"X - < - < 1 r 1 y y E #.&.=.=.7.N.%XAX`.R.`.sXW.qXDX@XgXjXIXcX(.Q.*X'.W.nXiXX.F.=.-.%.%.k.B B B B z b z 4 4 4 4 - < < < < < - - ",
"+ : : 1 1 1 r q q t y C E ! =.7.S.oXmX`.#X#XsX&X#XvXdX#XFXbX'.W.Q.&X&XrXAXoX/ A.J.-.%.%.%.B B z z b 4 4 4 b 4 4 o - - < - - o - ",
"+ - 1 - 1 1 r r y m E W ! ! =.7.S. XAX`.*XsX>XsXrXqX`.aXDX&XW.R.$XrXrXtXIXE.] Z.-.=.%.#.B B B B b b b 4 4 4 4 4 - < - - - - - o ",
"- + - : - > 3 r e t m E ! ! | ..4.^.bXsX`.sX&XsXsX#X#XSXhXT.W.^.$XrXyXlXbXl.c. .%.%.%.%.^ B B B b b 4 4 3 b b 3 < - - - o o o - ",
"X X X X o @ - - - ; 7 9 C R ~  .2.:.sXvXK.`.Q.Q.Q.#XvXgXM.:.M.E.'.R.wXDX).z.[ 1.%.%.m m m M 4 z < < < < - < < < - o o o X X X X ",
"- - : 3 3 3 3 M : 9 R E ! | =.1.!.W.@XDXqXqXsXsXyXvXDX@X<.W. X*X$X[.NXNXG.V.c.S.A.J.J.%.%.%.B B b b b b b b 3 3 3 3 < < < < - - ",
"- 1 1 > 3 1 M b : 7 m ! ! | o.1.x.'.(.gXgX].sXaXjXSXwXz.:.oX$XeXyXkXDX].G.G.}.D.A.J.J.%.=.%.%.B 4 b b b b b b b 3 < 3 < < < - < ",
"- : : : > 3 3 b 6 7 n W ! | =.o.N.V.].tXVXqX0XyXNXjXn.l.<. XwXeX9XBXfX_.G.G.9XH.J.J.J.%.%.%.%.b 3 b b b b b > 3 4 3 3 3 > < - < ",
": : 1 1 3 3 3 b 7 n R ! ^ | o.1.N.x.{.[.NXdX_.NXNX].B.C.c.oXwX9XMXHXfXfXuX9XH.H.H.H.J.%.%.%.%.b b b B B b b b 3 4 4 3 3 3 < < < ",
"X + - - - - > > : 7 9 c L ~ Q } ..c.C.B.tXuXyXHX8X+.l.{ 2.D.).9XHXBXfXfXHXzX9XH.J.J.O.^ ^ M M b b M b b < < 3 < < - - o - o - o ",
"X + + , - - > > : 7 9 n L L Y Q ) ,.x.R._.(.VXuXz.l.l.D.D.E.G.NXMXv._._.8XMXpXC.C.H.J.O.O.O.%.b M b b b 3 3 > 3 4 3 3 - < o - - ",
"# q 1 q q 3 M 3 m m @.! %.Q T o.6.!.E.$X0XgXSX(.M.E.|.%XeXeXkXFXG.v.G.8XG.uXBXG.oXD.F.Z.F.k.%.-.%.W ! W 3 M B b r r 2 3 3 < < - ",
"= # q 7 7 7 3 M y t E W ! ^ T o.S.N.'.[.dXSX@Xb.3.}.W.%X9XwXHXyXk.C.}._.8XuXfXG.OXV.C.C.k.k.-.#.#.W W m > M b e 3 > 3 < < < - - ",
"# 6 q 3 > e M M m m E W | | T 2.N.M.'.].NXjXb.b.R. XXX@X8XCXzXG.v.x.H.9X9XBXuXG.OX}.V.H.k.k.=.%.%.W W m 7 3 b 3 3 3 3 3 1 - - # ",
"# # : : > 7 > e E t R W ! | T { N.B.'.jXFXB.M.E. X'.9X_.kXDX(.x.C.k.9X{.yXGXCXBXCXxX9XC.H.J.^ O.^ ^ ^ n 7 e M e 3 < < < 1 1 - < ",
"$ @ - ; , > > > 7 7 C c Q ) P { ' z.(.FX$X' 3.<.b.R.(.].SX8X>.>.l.l.).v.GXCX9X).[.lXxXv.k.U / Y c R n v > > : 1 1 : 1 1 # @ @ # ",
"# # : : > > v M 7 t W ~ | o. .c.B.(.NXxXz.E.V.|.}.$X8XBXMXG.N.|.oX9X8XpXMXG.x.B.B.].MXwX).}.|.K T Q Q n m n e M 3 3 1 - 1 1 # # ",
"< > 3 > > M M n 7 R | | =.c.Z.D.).tXDX).>.N.|.;XoXeXzXMXB.B.2.|.oX}.0XGX[.n.b.V.'.B.BXuXv.G.!.{ T O.^ W ! W b N e e r 1 q 1 1 1 ",
"- < > > > > v n 0 t ! | | c.2.V.G.GXyX>.V.D.|..XoXeXSX9Xl.[ !.D.}.}.MXzXB.z.E.^.[.].BXqXz.OXV.c.T | ^ ~ ! W v b e r r q 1 1 1 : ",
"- > > - > v M M 0 n ~ | o.c.S.V.9XBXv.z.V.|..X}.oXcXzXl.[ N.D.}.}.eXGXv.z.M. X*XwX0XHXdXtXiX).m.` J.=.! W W m m b t y e r q 6 : ",
"< o > > > > v M 9 m ~ }  ...c.x.pXMXv.C.N.S.C.V.C.}.D.U { N.V.V.).ZXeXl.>.m.^.(.(.VXGXjXbXZXFX(.` } Q L R c 9 n 7 1 - - @ - @ $ ",
"X o X X , , > , 0 8 9 I I P ( [ zXyXk.l.c.[ [ [ x.{ ( V ( ] / k.pXxX+.[ 2.4.n.R.0XVXyXM.:.b.kXzX{ Q T 8 c 0 ; 7 q : : 1 : - # $ ",
"- - - > > v > M t R ~ ) )  .2.l.MXyXl.C.S.D.D.C.V.c.6.A.7.F.N.9XIXXXU 2.~..X`.0XVXdXb.Q.T.B.].CXC.Z.o.| ^ L 9 m n y e e q q q : ",
"< 1 : q > > M v m R Q )  .X.c.l.MX9Xl.c.c.c.C.X.c.X...6._ Z.c.oXeXv P ( S.!.(.dXSX`.:.3.^.'.#XFXx.6.o.o.) 9 0 W m t t e r q q 1 ",
"# # # - > > > > t t R ~ ) } { k.lXyX` V.S.1.c.c.Z.c.Z.6...6.2.c.k.+.U c.V.E.@XDX#X<.Q.E.*X(.aXxX` } } | Q 0 ; R m b e q q q q : ",
"= 1 1 6 7 7 e t R R E ) | } { [ pXpX` C.c.2.6.=.c.| Z.2.6.Z.1.o.T X.K D.E.(.zXbXT.3.T.R.`.@XFXeX'  . .| Q R c W n e e r q q 1 : ",
"@ $ $ ; - : ; : 7 t V ~ Y Y +.v eXcX[ >.] 1.6. .6.Y o.)  .)  .) T } K ` x.9XAX'.:.4.M.R.B.tXZX' P I I L L 8 0 7 9 e q q q : : : ",
"$ + $ $ - - - - > v c L Q Q ) [ ).nXn.m.x.( c.(  .5._ V L I T Y Y K ` ' x.nXiX0.0.4.3.b.B.FXG.U P L 8 8 8 0 > , > ; - ; @ - # $ ",
"@ @ - - > 1 > : M n R ^ ^ O.o.c.x.ZXrX' E.E.N.N.S.7.5. .o.Z.k.o.Z.X.c.S.!.iX^.3.+X4.*XR.lXCXl.U } Q Q Q Q n n n M e 3 1 1 : 1 - ",
"- - - - > 3 > : 7 n R Q ^ | ..o.z.XXAXn.E.}.' !.7.4. ._ =.6.o.2.1.o.1.c.D.N.:.4.3.^.W.@XIX{.K K } ^ ~ Q ~ R n n M e e 3 q 1 q : ",
"- - - < < 3 > > e v n R Q Q } X.N.n.xXiXz.E.N.<.N.7.( _ 5.7.1.1.5.7.S. .N.2.( T.3.*XM.bXzX` K ) Q ~ T R n n n M e 3 3 > 1 1 1 # ",
"- - + : : > : > n m R W Q Q | X.x.N.E.UX Xb.N.!.N.4.5.5.2.2.5.7.7.5.7.2.2.4.N.M.'.M.aXDXm.` V ~ ! ~ R R n c t e e 7 1 : : 1 : # ",
"X X X + @ - @ > : > v c c L T U ] ' >.oXUX}.b.x.,.4.5.:.5.( ( 5.5.I 5.:.2.:.3.<.b.`.DX[.P P V i C V 9 8 7 7 7 > > : - - - - # $ ",
"X X + + + - @ + , $ ; 0 0 8 9 K P 2.V U iXUXXX>.N.N.<.<.4.2.<.2.7.5.<.m.c.:.<.m.R.lXjX( ( I ! n 9 9 7 0 0 0 : ; - - @ # # # # $ ",
"- + - - - > - : : 7 7 n L R ~ Q I  .' ,.[ }.UXxX).E.M.N.E.V.N.N.4.!.m.m.N.,.4. XAXlXM./ 5._ ! Q R R n t n e M e 3 ; : - : < 1 1 ",
"X + X - - - : : 3 7 7 7 9 c L R ~ _ ( ' ,.' V.cXZXcX.Xm.b.m.m.b.3.M.z.n.x.T ' ;XiXV.( 0.~ C v v t 9 9 e M 7 7 q - ; - - - # # $ ",
"+ X - - - < - : 1 : 7 e 7 n L L ! ~ 8 V ,.>./ >. XiXUXZXhX%X{.}.).E.).eXzXoXl.c.<.( P _ _ C K v 9 t 7 7 7 e 3 3 - - - - : # # # ",
"+ @ @ @ @ - - - ; : 6 7 7 7 9 C C ! C P c.c.[ >.K ` m. XcXxXZXnXnXAXZXxXcX}.U ` P ( _ &.C C T v 8 6 6 6 : q : ; - - @ @ @ $ @ $ ",
"$ X X + o o o o @ - ; : 6 7 0 9 6 C V 8 8 K U ` ' [ ' U K U l.n.B.m.l.+.K K 8 Y V V C C i t v 0 0 : : ; : ; - - X + X + $ $ $ $ ",
"$ $ @ X @ o - o + - : : 6 0 7 7 t C R R ) Y I / / / / / :.,./ / / ' V V T Y K T I V C C C n 8 , ; : 6 : : - - - @ o $ @ @ $ $ $ ",
"@ @ @ @ o - - - + - : 0 6 7 7 7 6 : 7 n T I I I I ) ) V P P / / P ' ( _ ! c v K Y V C ~ R n t 7 6 6 6 6 > - - - - @ # @ @ @ = $ ",
"$ @ @ @ - - - - + - - : 6 6 7 7 n t n t 0 8 V C C _ ~ C C I ) ( >.( C F F E v K T v V 9 0 ; 9 q # 6 q 1 : - - - - @ @ # # @ $ $ ",
"$ $ @ + o @ @ + X + @ ; 6 6 ; 0 ; 0 7 7 0 L C V V C C C V C ~ Y P P C D j t v v 8 8 c 8 8 9 y = # 6 q : ; - + - o @ @ $ @ $ # = "
};
