/* XPM */
static char *_4a9aea4a78944d7ba17d1da151a14b4Ge3TrlHWytL1R7zW[] = {
/* columns rows colors chars-per-pixel */
"64 64 256 2 ",
"   c #010503",
".  c #0A0205",
"X  c #010A04",
"o  c #03050B",
"O  c #0B030B",
"+  c #010B0C",
"@  c #0B090D",
"#  c #0B0905",
"$  c #13020C",
"%  c #00110D",
"&  c #00180E",
"*  c #030512",
"=  c #0C0413",
"-  c #010B13",
";  c #0A0A14",
":  c #02051B",
">  c #020C1B",
",  c #0A0C1A",
"<  c #0A051A",
"1  c #150818",
"2  c #001214",
"3  c #00131C",
"4  c #06151D",
"5  c #030523",
"6  c #0B0422",
"7  c #020C24",
"8  c #0A0B23",
"9  c #020D2B",
"0  c #090C2B",
"q  c #05052C",
"w  c #011323",
"e  c #0B1325",
"r  c #001924",
"t  c #01162D",
"y  c #02142B",
"u  c #09132D",
"i  c #011A2C",
"p  c #091A2A",
"a  c #020D33",
"s  c #030D3B",
"d  c #0A0C37",
"f  c #100B37",
"g  c #021433",
"h  c #021A34",
"j  c #0A1C32",
"k  c #01143C",
"l  c #011B3C",
"z  c #0B1B3C",
"x  c #0A1437",
"c  c #141028",
"v  c #022134",
"b  c #02223C",
"n  c #0C2339",
"m  c #050E44",
"M  c #011543",
"N  c #011B44",
"B  c #0B1C43",
"V  c #01154A",
"C  c #011B4C",
"Z  c #0C1B4C",
"A  c #0C1548",
"S  c #011552",
"D  c #011D53",
"F  c #011D5C",
"G  c #071759",
"H  c #111850",
"J  c #012245",
"K  c #01234C",
"L  c #0B214A",
"P  c #092747",
"I  c #13244C",
"U  c #012354",
"Y  c #0B2254",
"T  c #022B54",
"R  c #01235B",
"E  c #002A5C",
"W  c #0B285A",
"Q  c #06345C",
"!  c #102456",
"~  c #011D63",
"^  c #011E6D",
"/  c #031862",
"(  c #001F78",
")  c #022363",
"_  c #012B64",
"`  c #01246B",
"'  c #012C6C",
"]  c #0B2867",
"[  c #003262",
"{  c #02326C",
"}  c #073769",
"|  c #012473",
" . c #012C73",
".. c #00257A",
"X. c #012C7B",
"o. c #0A2974",
"O. c #013474",
"+. c #013B75",
"@. c #00347C",
"#. c #003B7C",
"$. c #0A3579",
"%. c #133874",
"&. c #112D6D",
"*. c #00437E",
"=. c #124377",
"-. c #012D83",
";. c #022D8B",
":. c #052884",
">. c #013383",
",. c #013B83",
"<. c #01348B",
"1. c #003B8C",
"2. c #0C3688",
"3. c #012C95",
"4. c #003594",
"5. c #013B93",
"6. c #02359B",
"7. c #003C9C",
"8. c #0B3597",
"9. c #123B96",
"0. c #12378B",
"q. c #013DA2",
"w. c #013AA8",
"e. c #0A3DB1",
"r. c #00438B",
"t. c #014B8B",
"y. c #014383",
"u. c #004494",
"i. c #01449C",
"p. c #004C9B",
"a. c #054798",
"s. c #01529C",
"d. c #015896",
"f. c #065092",
"g. c #006393",
"h. c #0144A3",
"j. c #014BA3",
"k. c #0145AC",
"l. c #014CAC",
"z. c #0B48A9",
"x. c #0054A3",
"c. c #005BA3",
"v. c #0155AC",
"b. c #035CAB",
"n. c #0144B3",
"m. c #004BB2",
"M. c #0043BA",
"N. c #064AB9",
"B. c #0253B3",
"V. c #005AB3",
"C. c #0153BB",
"Z. c #035BBE",
"A. c #0B56B7",
"S. c #114AB3",
"D. c #0065AA",
"F. c #0567AB",
"G. c #0263B4",
"H. c #0162BA",
"J. c #026BBB",
"K. c #066AB8",
"L. c #0273BB",
"P. c #0676B8",
"I. c #0B78B3",
"U. c #074AC7",
"Y. c #0154C4",
"T. c #025BC3",
"R. c #0054CC",
"E. c #005CCB",
"W. c #0C5CCB",
"Q. c #0459D6",
"!. c #1257CB",
"~. c #0363C3",
"^. c #026BC4",
"/. c #026DCB",
"(. c #0666C8",
"). c #0173CB",
"_. c #0477C6",
"`. c #0065D3",
"'. c #036ADB",
"]. c #0D6BDC",
"[. c #0467D7",
"{. c #0272DB",
"}. c #0677D7",
"|. c #1577D6",
" X c #136ECD",
".X c #036CE4",
"XX c #0568E6",
"oX c #0174E4",
"OX c #037BE5",
"+X c #0274EB",
"@X c #0879E9",
"#X c #1779E7",
"$X c #0878F5",
"%X c #167BF6",
"&X c #236BCF",
"*X c #0C8CBD",
"=X c #0487C9",
"-X c #0484D7",
";X c #1785D8",
":X c #0395D8",
">X c #1696D4",
",X c #138ACB",
"<X c #2695D3",
"1X c #0DA7D9",
"2X c #0788E7",
"3X c #168AEA",
"4X c #0696E9",
"5X c #1797E9",
"6X c #0888F6",
"7X c #158BFE",
"8X c #1C8CFC",
"9X c #1486FB",
"0X c #0B9AFD",
"qX c #0A95FA",
"wX c #1C9DFF",
"eX c #1796F9",
"rX c #278CE7",
"tX c #2498EA",
"yX c #248DF5",
"uX c #249CFD",
"iX c #2C9BFD",
"pX c #2794FD",
"aX c #318EEB",
"sX c #0CA6FC",
"dX c #1CA6FE",
"fX c #13ADFE",
"gX c #1AAAFF",
"hX c #15A6F6",
"jX c #09BAFE",
"kX c #15B5FF",
"lX c #19BAFE",
"zX c #14A9EA",
"xX c #27ABEC",
"cX c #22A3FD",
"vX c #24ACFE",
"bX c #2CA8FC",
"nX c #34A9FE",
"mX c #23B4FF",
"MX c #2AB1FF",
"NX c #27BAFD",
"BX c #33B5FE",
"VX c #37BCFF",
"CX c #29B4E8",
"ZX c #42B3FF",
"AX c #4098FC",
"SX c #18C6FF",
"DX c #12CBFF",
"FX c #2BC2FE",
"GX c #24C9FE",
"HX c #3BC3FF",
"JX c #36CAFF",
"KX c #27D5FF",
"LX c #31D4FF",
"PX c #39E3FF",
"IX c #47C7FF",
"UX c #46D7FF",
/* pixels */
"o     X X X X X - - > > : : - w w y y y u u y y y t t i y u u 0 t r t y a x M M M k k a 9 9 6 * . .     X X X + @ o * + % % @ . ",
"o o o + + X % 2 3 3 w > > > > 3 7 y y h u y y u y t r t y y x u r t u y g z B C N l l h h 9 7 : o .     X X X   * o * + + + O . ",
"* * * - - 3 - 3 w w w 7 7 7 w w w u y y y i r r w r w 9 y y g j y y j g j z l l J P n n j p u e : - : * - - - + - * * - - X + # ",
": : : > > > 3 w y y 9 y w r r 3 w w e r r e r w 7 7 > > 7 r r t g p g j g t p y j j p j j j j p 9 9 5 5 5 > - - * - * @ + + % & ",
"* : - > > > w 7 y 9 9 y y r w w w 3 3 7 > , , , ; , ; > > 3 3 r w 9 y 7 w 3 3 > > 3 , w e y i y g a q 0 6 < : - * o O @ @ + 2 & ",
"* o - - > > 7 7 9 a 9 a 7 7 > > > > > - - * = O = $ * o - + 2 > : : : > - + + + o o - : > 7 y 9 g a 0 6 6 < : o o @ O $ O o & & ",
"X X % - 2 3 7 9 9 a x a 9 5 > > > > > - * - o o @ @ o o + + - + * * * o + X X X   o * : 7 g h k g u u 7 6 < = ; @ O . O O + + & ",
"X X % % 3 3 y g M Z L Z N k y y 7 7 : > - - - + o . O . o o + o * * + + + X X X @ o : 5 a N C U B z h h 0 7 7 , O O . . O # - 2 ",
"X X + 3 r t N K R _ %.{ R C K J 9 f 0 w 3 3 - + o o . O . O o O o .     X X X o * 7 0 s Z ) ' F R T J K l K b w 6 1 # + o O + 2 ",
"+ - - w l J T _ ,.t.s.s.y.+.+.Q U L k 9 5 7 > - + + O @ O O O . . .   .   + - ; 7 : q D o. .| @.' { [ *.+.[ T N u 1 - & o o o o ",
"8 8 9 h K E @.u. X}.;X3X;X=XP.g.} T N l k 9 5 < - - - + o O O .   # # # # - > 9 a M ) $.>...:.z.V.J._.5X,XP.g._ V d w 3 - o . O ",
"c x k V R @.p.(.nXuXuXMXVXHXHXCX*Xg.[ K C f q 6 : > - % + o o .   X # - : 5 9 M M _ ,.u.5.v.&XaXiXnXBXHXVXHXxXg.S s t 4 2 o O $ ",
"H A A D ` 1.(.rX6X+XOXoX2X5XbXMXLXCXI.+.S A f 0 0 > - 2 - + + o X X - > 5 a M F O.t.s.x.(.aXAXaXrXrX;X}.-XgXLX>X) A h r 4 - = $ ",
"I H V R O.a.|.bX@XoXoX`.m.V.^.,XzXJXIX<Xy.R V h a 7 > - - - - + % - > 7 s A ) X.u.b._.2XuXiXyX|.s.r.<.5.4.J.SXCXO.S h t r w < < ",
"I N M R #.c.|.iXoX{.[.Y.6.;.<.1.5._.BXIX<Xg.Q b J y 8 : ; - - - 2 3 w a A / 2.5.p._.hXlXgX4X}.H.{ _ ~ | @.s.KXFX+.Z g h h w 6 : ",
"P k M R $.b._.3X3X].R.k.<.:.X.| <.| s.CXUX1Xg.*.E C 0 6 < ; - - 3 3 9 s G ..4.j.3XvXNXhX-XG.u.O.K N S ~  .c.LX1X+.V y h b h 5 : ",
"h a S ` { t._.4XwX`.Y.n.:.^ o.F F R [ g.>XGXlXG.i. .M q 8 , : > w r a F 0.1.v.5XmXmX5XJ.t.O.U b v w H / | ;XLX*XQ J l g J B : * ",
"r a ~ ] ] +.L.hXdXoXR.S.-./ F D L N K } g.:XlXdX).,.S M t > 7 y y N ) -.6.T.3XvXhX:XJ.1.) M h e 4 e S / 1.tXJXP.[ b u x Y P 5 * ",
"r y ` o.D _ c.4XMXOXN.q.2.~ D K l h l T [ d.xXHXbXc.E J h w h l V ` a.m.T.eXBXhX,XG.,.~ m a w 3 3 r V ~ c.nXNXD.[ N d x ! T w - ",
"r g &.%.C D r.-XMX2XN.6.2._ U T l h l K R *.L.5XIX>Xt.R M N J U  .<.m.~.6XmXvX).F.1.~ V M 9 3 3 2 t V ~ K.VXcXx.{ M d f W W 9 - ",
"r y %.&.V C >./.MXeXA.;.$.} K N K B k N D  .x.J.vXBX,Xr. . .' #.2.z.B.{.sXsX-Xx.y.) V m k 9 7 3 4 v C ` L.HXrXi.` V f A &.} y , ",
"w w %.%.V D X.~.dXeX~.4.$.} T N C Y M M V ) 1.i.^.vXnX(.h.6.4.i.<.b.).qXfX4Xx.#._ B a a a 5 7 3 r b D ' L.VX3X7.| S m M ] } h 7 ",
"3 y =.&.M U X.K.hX4X~.4.2.&.W C V R C K U F X.5.v.OXuX7XQ.M.M.n.i.J.3XuXeX^.r.E J j 7 7 w y w t i l R ,.=XFX|.6.` F V V ' } l 7 ",
"w k =.{ k U X.W.lX4XH.6.X.] ] R G W C C U C ' >.A.Z.9XuX+XQ.Q.N./.-XpX8X`.B.r.K b r 4 3 w e y 7 h l ` u.=XFX&X;.` F D C ' O.l 9 ",
"5 z %._ K M @.K.hXkX^.6.<.^ ) S R D Y T J N U ' a.l.`.eX7XOX`.'.{.wX8XXXQ.S.:.G t 4 4 2 e p i y A m ^ p.=XFX X;.` D V U @.O.P y ",
"7 L %._ J N @.G.hXNX).4.-.| o.^ S D W Q E Q Q D ,.5.T.3X0X2XoX2X6X0X$XQ.U.e...S l i i h g z z l Z F X.s.:XGX X..) U M S $.} K y ",
"9 L %._ N J { s.>XFX).<.;.-.-... .' ^ / F _ _ R @.<.m.].qX0X0XsXsX0X.XU.U.e.( G V M M G G F F ~ S / >.c.1XKX_.X.R V k Z o.} J h ",
"9 P %.D h l _ #.>XJX3X7.5.i.i.5.1.r.9.0.X.' ' ) o.X.i.~.3XgXBXFXNXqXE.n.e.8.^ / F ~ ^ X.0.;.-.-.( :.t.P.zXSXF.O.D N s A &.{ b v ",
"7 J %.M p u C ' P.IXVXJ.x.b.G.Z.b.v.Z.A.q.:.( o.` | <.l.(.3XcXbXxX_.j.5.9.:./ / ` X.6.k.C.m.l.p.7.1.p.-XJXCXf.' V h 9 B &._ b i ",
"w b } M c e N E $.xXIXgX:X:X2X4X5X-X}.}.C.6.( ] F _ X.1.h.V.H.K.K.t.#.X.&.&.G G  .a.T.{.OX2X}._.^.L.4XNXZXI.#.W l 9 9 z ] _ l t ",
"r v Q k c 1 h K ] F.xXGXSXjXlXlXSXSXSXfX}.h.o.G H C _ { @.-.>.@.@.' ` ~ H H H C y.I.hXkXjXSXSXCXSXDXKXFX<X<.~ D g 7 7 l ] R g 8 ",
"3 l W h c 1 7 N E _ d.:XjXjXjXlXGXSXSX4XV.<.^ ! I Z K E _ R R ) R D S Z A I Z V +.I.mXGXDXDXDXKXDXDXsXL.u.F F s y 7 3 l Q Y a 5 ",
"7 l P l w e w y N _ #.b.4XsXjXkXgX6X{.~.v.8.o.! C N J K K K C M M M h 9 h n K D @.b.|.6XqXsXlXKXDX:Xb.t.O.F M g 5 5 9 k T P a 5 ",
"5 v I l w r 3 t J E @.J.gXNXfXqXOX.X].!.z.:.^ R Y C N N N N N N M x y t i v J K | i.W.#X+X2X0XsXSXkX^.<.` R h 5 > > 9 k P J 9 7 ",
"9 h P j y t w y J E s.5XvXgX2X2XT.E.W.h.-.` F F C C N C K U U U D V l h h v l C F <.z.Z.E.~.{.-XhXJXtXs.' U k w 8 < 5 g P b y > ",
"7 t P h 7 t r l K +. XcXdX6X/.~.C.m.7.-.| ) R D V C C R E { { _ O._ C k h b l N S | 4.k.l.m.m.V._.vXVX,X#.D h w > > 5 h b v 7 : ",
"7 y n h 9 y h N [ t.;XpX6X+XE.k.7.4.<. .{ _ U V C D R ) O.#.t.s.s.1.) V k z z l M F X.5.7.q.q.q.v.-XJXBXd.C b r > > : 9 n v - * ",
"3 r n h 9 g g K { s.yXeX+XXXR.k.6.<.>.O.E K N l Z R ` X.1.x. X;X Xv.,.~ C Z B z s V ~ X.;.<.3.w.m.H.NXJXF.U J 7 3 > : 9 v v - o ",
"3 3 n g 9 g h U O.x.iX7XXXXXR.N.z.2.' T N l h l C ) $.5.l. XeXMX2X[.j.X.F Z A z g k C ' X.;.3.3.n.E.fXGXI._ J w 7 > 6 5 v i - O ",
"2 4 n g 9 h k Y y.j.3X7X$X%XQ.M.0.` C M l h g l U &.0.z.C./.6XdX7X@XT.<.^ D A z h k M R $.:.3.3.e.'.kXSXL.{ J t w 3 : 8 i i ;   ",
"- 3 p h y a k U #.p.'.pX+X$XR.S.$.] M l h t h l R ` a.A.].@X0XqXqX+X.Xm.-.` Z I h h N R  .>.8.w.M..XSXkXb.y.k h > > 6 q t r ; o ",
"- 4 p j y h l K +.p.~.pX%XXXQ.A.o.D M l t r h k R X.S.W.oX7XqXqXwX$XXXT.4.| R K k l N T O.<.q.e.U.%XmX4Xc.+.V h 7 : 6 6 w w * . ",
"- 3 p t t t l K { a.l.%X8XXX].m. .D M h y t g N R 1.A.].#XuX$X6XwX$XXX[.l.-. .R K l N E @.7.n.U.Q.pXvX).p.' U y w : 6 7 w w ; . ",
"- , r i t t j C _ >.q.].pX$X].l. .D N l h y h V ) u.A.#X8X8X+X+X7X8XXX[.W.i.<.' U C U ' ,.h.C.E.XXiXeXB.1.) L 5 > , : 5 w > o . ",
"* > w i i i i n ! | 7.T.iXeX}.x. .U V l h h k C  .j.T.%XpX.X.X'.$XuX+X`.XXB.5.@.) F ~  .4.k.U.Q.#XiX|.j.| ) B > , ; : : > 2 o . ",
"* , w r r r i z ! ~ 4.m.3XcX4XJ.#.E C N z k M D O.B.~.8XpXR.[.`.[.pX%X.X.X(.h.<.` ~ / ( 6.m.Q.[.7X3X~.6./ D 9 7 ; @ - > > -     ",
"= : w r r 4 r j Z F :.q.[.wXgX=Xt.' K M B B C ) >.H.#XpX#XM.Y.U.E.oX9X$X.X[.T.i.-.^ ^ :.6.U.XX$XwX_.v.:.F V 7 , @ O - - - 2     ",
"= : 3 4 4 3 e p m W | 5.b.2XNX:Xs.#.) D G W R  .u.(.eXcX`.n.q.h.Y.Y.yX8X[.oX].A.6.:.:.:.w.E.$X9X5Xj.i...~ M > , @ @ + + - X     ",
"= - > 2 3 3 4 t z L F  .s.J.5XHX|.h.-.X.` | -.<.l.uXvX2XZ.i.5.:.z.U.[.8X9X+X'.#XN.w.3.3.N.'.qXdXZ.7.-.` U k > - - o + * - * * o ",
"o - - 2 3 3 4 i h Z U _ O.t.=XVXnX).i.1.1.<.5.v.uXBXeX/.i.>.o.o.8.w.Y.#X8X6X$X+X].R.e.w.`.wXfX2Xl.2.` R M y 7 2 - o o * * o o * ",
": - 3 2 3 2 3 w 9 z Z U ) O.c.>XLXSX:XF.d.d.F.zXUXcX/.h.-.` ) ~ X.4.l.(.$XeX7X6X$X@X|.}.iXZXuXJ.1.| R C l y > 2 o + o o o o o o ",
"- - 2 2 2 2 3 w e d M V U E +.d.:XSXGXzX:X1XFXUXxXJ.1.-.` F Y U ) X.i.m./.@XqX0XqX0XcXBXZXtXK.r.' R V k y w 3 - + o o X o o X   ",
"- - 2 2 2 2 2 > e u a x K U U ' ,._.NXLXPXPXLX<Xx.$.) F V C J l C R O.5.l.E.OX6X0XqXzXtX,Xs.@._ U N k y 3 > - + +   +     X     ",
"- - 3 3 2 2 2 2 ; 8 6 q x M N E O.,.F.1X1X:XI.*._ D C k a l h l b N U O.8.k.T.`.}.).L.D.t.+.R Z k g w w - - + + o + O       X   ",
": - 2 2 2 2 % + o , , > 0 y h J U F ) @.+.O.' _ C k k 5 5 p 9 t i h N F o.0.8.q.4.u.r.*.{ E Z g y > > - - + + o + o o +         ",
"- - , 2 2 & + % X - o - e e w 9 k Y S S ] W C M h r 3 o 3 c : y 3 w g x A G o.o.,.O._ { T N a 9 > - - + +   o   * o o o     X   ",
"o - ; 2 2 X % % % + + - 2 2 3 > w i g x m m k y 3 2 % X + , 8 8 3 3 w 0 u f H A D K C N l h y 8 - - + + o o o o o o o o o       ",
"* - ; % 2 % % % % % X % 2 2 2 2 2 2 > u a 9 9 > 2 X X X X ; , > 7 3 > 7 7 0 0 x d k x j y 7 > > - + o +   o o o o * * o o       ",
"O * ; ; + + + % % % % % % 2 % + @ # - 2 3 3 > - #       X 2 > > > > > - - - 3 w 3 w w 7 7 > - * : o o o   o o   * * * * o o     ",
"o O + @ + + + 2 X % X % + % 2 % # # + % 2 - + o . . .   + - 3 > > , - 2 2 % & 2 3 3 > > > - - - - o + o     o   o o o o o       ",
"+ o o + o - + + + + + - 2 + 2 ; % @ @ 1 = @ O + #       - ; > > > > 2 - 2 & 2 2 3 3 3 > - - + + o * o O           o o o   o     ",
"  X   o @ + ; + - - 2 - - + - - - - ; $ $ O o + +   o o * - 2 > > > > 2 2 2 3 3 3 7 7 > - + O # - * o + X           o   o       ",
"X X   o @ @ ; - - - - - * - - ; > > 3 2 - + o o o o o o - > > > > > 2 > , , 3 8 9 5 5 : : o     - * + o X                       ",
"+ X     @ @ = * * ; > ; - * * , > w 4 3 2 2 o o o * o * - - 2 > 3 3 3 , , , 8 8 9 q 5 : *   . . o o o                         . "
};
