/* XPM */
static char *_6f00c96731a440585def4c79547c7c1lAF3mSoMjyNvH110[] = {
/* columns rows colors chars-per-pixel */
"64 64 245 2 ",
"   c #050505",
".  c #0A0605",
"X  c #060806",
"o  c #0A0906",
"O  c #070308",
"+  c #0B050A",
"@  c #070908",
"#  c #0B090B",
"$  c #13060D",
"%  c #1B060D",
"&  c #14090E",
"*  c #1B090E",
"=  c #0E0A11",
"-  c #150611",
";  c #1C0613",
":  c #140A12",
">  c #1B0914",
",  c #1C0A1A",
"<  c #190818",
"1  c #220615",
"2  c #220915",
"3  c #25061A",
"4  c #2B061D",
"5  c #24091B",
"6  c #2B0A1C",
"7  c #2B0A15",
"8  c #34051E",
"9  c #39031E",
"0  c #32091D",
"q  c #38071B",
"w  c #2B0814",
"e  c #2D0621",
"r  c #2D0921",
"t  c #340622",
"y  c #3C0625",
"u  c #340923",
"i  c #3A0925",
"p  c #3E062A",
"a  c #360929",
"s  c #3D0929",
"d  c #350628",
"f  c #3D0E32",
"g  c #430525",
"h  c #4A0327",
"j  c #44052B",
"k  c #4B042C",
"l  c #430A2B",
"z  c #4A092D",
"x  c #420824",
"c  c #53042D",
"v  c #5C012E",
"b  c #42102E",
"n  c #4C0331",
"m  c #460A31",
"M  c #4C0A32",
"N  c #480433",
"B  c #530434",
"V  c #5B0335",
"C  c #530A34",
"Z  c #590A36",
"A  c #55043B",
"S  c #5D043C",
"D  c #530C3A",
"F  c #5B0A3B",
"G  c #5A1239",
"H  c #471131",
"J  c #64043B",
"K  c #69053E",
"L  c #630A3C",
"P  c #640639",
"I  c #5C0242",
"U  c #5B0A46",
"Y  c #5D1140",
"T  c #630342",
"R  c #6C0444",
"E  c #640C43",
"W  c #6B0B45",
"Q  c #64024C",
"!  c #6C044C",
"~  c #660A4A",
"^  c #6D0A4C",
"/  c #740445",
"(  c #74044C",
")  c #7B044C",
"_  c #740B4C",
"`  c #7C084F",
"'  c #6B0354",
"]  c #6B0B53",
"[  c #690555",
"{  c #740253",
"}  c #7B0354",
"|  c #7B0A52",
" . c #7C035A",
".. c #750A57",
"X. c #731253",
"o. c #7C0A62",
"O. c #820953",
"+. c #84015B",
"@. c #8B025B",
"#. c #870657",
"$. c #93015D",
"%. c #98025D",
"&. c #84024E",
"*. c #840363",
"=. c #8C0164",
"-. c #8B0B64",
";. c #8B026C",
":. c #860869",
">. c #940263",
",. c #9B0363",
"<. c #94026C",
"1. c #9C036A",
"2. c #970968",
"3. c #86146B",
"4. c #8B0175",
"5. c #930174",
"6. c #9C0274",
"7. c #95037B",
"8. c #9C017B",
"9. c #9A0D7C",
"0. c #9A177A",
"q. c #911872",
"w. c #A20364",
"e. c #A3046C",
"r. c #AA046E",
"t. c #A8096D",
"y. c #A50274",
"u. c #AB0374",
"i. c #AC0B73",
"p. c #A4027A",
"a. c #AC027D",
"s. c #A40B77",
"d. c #B20375",
"f. c #B5057C",
"g. c #BA057D",
"h. c #B3097B",
"j. c #B60776",
"k. c #A5147D",
"l. c #A5126D",
"z. c #922178",
"x. c #C1047A",
"c. c #9C0584",
"v. c #9D1482",
"b. c #991586",
"n. c #A30284",
"m. c #AB0283",
"M. c #A70887",
"N. c #B40284",
"B. c #BC0482",
"V. c #B4028A",
"C. c #BC028C",
"Z. c #B80988",
"A. c #A61587",
"S. c #AD0496",
"D. c #BB029C",
"F. c #B60592",
"G. c #B51C97",
"H. c #B01A90",
"J. c #9C2684",
"K. c #A72889",
"L. c #B4318E",
"P. c #AA2893",
"I. c #B62999",
"U. c #AC3693",
"Y. c #B43798",
"T. c #B1228C",
"R. c #BA18A5",
"E. c #BA29A5",
"W. c #B935A1",
"Q. c #C20484",
"!. c #C3048B",
"~. c #C3098C",
"^. c #C80589",
"/. c #C60693",
"(. c #CB0394",
"). c #C50895",
"_. c #C4039D",
"`. c #CC049B",
"'. c #CC0B9A",
"]. c #D3049D",
"[. c #D30798",
"{. c #CB1890",
"}. c #C3309F",
"|. c #CA04A2",
" X c #D403A4",
".X c #DA03A6",
"XX c #D603AB",
"oX c #DB03AC",
"OX c #D90AAA",
"+X c #DD03B3",
"@X c #DD05BA",
"#X c #DA08B3",
"$X c #C21BA6",
"%X c #E202B4",
"&X c #E201BB",
"*X c #EA04BE",
"=X c #E50CB5",
"-X c #C52CA4",
";X c #C838A9",
":X c #D236B5",
">X c #B5439B",
",X c #BD45A5",
"<X c #C54DAD",
"1X c #C746A8",
"2X c #CA45B1",
"3X c #D446B8",
"4X c #D856B9",
"5X c #CC51B1",
"6X c #E151BD",
"7X c #DE06C3",
"8X c #DC08C6",
"9X c #E302C2",
"0X c #E901C4",
"qX c #E501CB",
"wX c #E901CA",
"eX c #EE0CC6",
"rX c #F204C7",
"tX c #EA02D4",
"yX c #F110C2",
"uX c #D73DC1",
"iX c #DB57C4",
"pX c #D74AC4",
"aX c #E24CC8",
"sX c #E65BC9",
"dX c #E759D1",
"fX c #F45CD8",
"gX c #E465CA",
"hX c #EE64D3",
"jX c #E96CD4",
"kX c #F263DC",
"lX c #F66AD6",
"zX c #F375DD",
"xX c #F874DA",
"cX c #EF72D6",
"vX c #F85FE1",
"bX c #FE6CE3",
"nX c #FC69E7",
"mX c #FD73E2",
"MX c #FC7CE4",
"NX c #FF73EC",
"BX c #FF7DEB",
"VX c #F075E0",
"CX c #FF79F3",
"ZX c #FF78FB",
"AX c #FE85E8",
/* pixels */
"        + + . + $ + $ $ $ % ; ; $ - ; ; > * * - : : > & : > : : : > & * : * & & & & & & * $ $ - * % $ $ $ $ + + + + + O O O O O ",
"        O + O + $ $ $ % % $ ; - ; ; ; > > > < > > : > > > < > > > > > > > > > > > * * > - * % * & & & $ $ $ $ $ + $ + + + O O O ",
"O       + + + + $ + $ $ $ ; ; % ; ; 2 > > > 5 , , , > > , > , 5 , 2 2 , 2 2 , 2 > > > > > > > > % & % & $ $ + $ $ + + + + O O O ",
"O O   O + + $ + $ $ % $ ; ; ; ; ; 1 1 2 1 1 1 1 2 r 5 5 4 6 5 5 5 5 5 5 5 2 2 , 1 ; 2 > > ; ; % > > * * > $ & & $ + $ O + + + O ",
"O O O + + $ + - - - - ; ; ; 2 ; 2 2 3 6 6 4 4 4 6 r r e t r e r r r r 6 6 6 6 5 5 5 2 2 2 2 , , > > > > - ; - - - $ $ + + + + O ",
"+ + + + # $ - $ - - ; ; ; 1 3 3 6 7 0 6 r r t t d i i u d i i s u i u u 0 r u r r r 6 6 5 5 7 2 2 2 2 > > < > - - = = $ - + + + ",
"+ + + + $ - # - - ; < ; 1 5 5 6 0 0 0 i u i i p y s p s p j y x s i s i i i a a u u 0 6 0 5 5 7 3 3 5 2 2 > > ; - - = - = + + = ",
"= + $ + - - - - ; ; ; , 4 3 4 4 0 0 0 0 i y y p l j j j j l l l l s s s s i i i u u 0 0 6 6 6 7 6 3 3 2 3 1 1 > - - - - = $ = + ",
"$ + $ $ $ - ; ; , , 1 3 e e t t 8 i 8 8 l z y k j j z z z z h h g l z z l p j l d y t t e u 6 6 4 4 4 4 4 1 1 , ; ; - - - + $ + ",
"$ $ $ $ - > < ; 1 3 4 e e t y t t l l x M M B k L A B B C Z C C C M h z M D M M n m m M f a u u d t 4 4 r r 4 1 < ; ; ; - - $ - ",
"$ % $ - > < > , 3 3 e t d p p j k j N D D A U ~ S S S S L L F Z Z Z F F F A A B A N k p d d f f i i d t d e 4 4 3 1 < ; ; - - - ",
"% $ $ % < > 5 , e e e d p k k n N N U ] ~ ~ ! S ] ! ! R T T E W E L L U T T ^ ] ~ I I U U U N f j y i i i u t 4 4 3 3 ; ; ; - - ",
"$ $ % $ > > 3 4 4 t d p j k k A I I Q I Q 3.q.o. .{ { { { _ ( / _ _ R ! ! { ! Q ......[ Q I D D m j p y y t t 8 4 3 3 1 ; ; % $ ",
"$ % $ ; > 5 5 4 4 t p k k k V S Q ' 3.U.,X5XiXsXW.L.q.*.} } } ) ( ( } }  .3.J.L.,X<X<XU.z.o.[ U A z l j p y t 9 8 4 w 3 1 ; ; ; ",
"; % ; ; > 5 r 6 t i s z B B L ^ o.U.iXmXMXjXsXdXMXxX4XI.2.+.+.-.#. . .2.A.1XlXAXhXmXBXzXgX,XJ.] Y D M z j y y d 8 4 4 3 1 ; ; ; ",
"; ; % ; 2 5 r r u p k C B E ^ ..,XMXVXY.9.A.k.6.s.:XlXlX2X0.*.o.;.+.;.Y.lXxX3Xk.v.v.9.J.pXAXjX>X] U A A m l j p t t 4 4 w 1 1 1 ",
"$ % > ; 1 3 6 8 y g k A I ' 3.<XAX2X9.:.=.@.+.$.$.>.9.;XBXsX4.c.;.b.2XMXsXk.2.#.+.+.#.#.#.0.5XAX,XQ ] U k j j p t 4 4 3 3 1 1 % ",
"$ ; ; 1 3 6 u u l h n S ! { 5XVXW.0.*.=.>.=.$.,.$.>.,.k.;XkXiXc.4.:XBX3X9.2.+.2.@.@.#.#.O.O.z.Y.jX>X..Q I n y y d t 4 3 3 w 1 1 ",
"% ; 1 2 3 6 u i l k V T ..3.zXiX4.*.*.;.2.1.w.t.t.e.>.<.1.3XZXE.E.bXsXk.@.$.1.%.,.$.@.@.@.} +.3.iXVXb.Q ~ F j l i u 4 4 w w 1 1 ",
"; ; ; 3 6 u u y j B S T :.<XzX0.:.<.1.2.1.1.t.u.i.h.y.e.<.M.sXbXbXdXM.<.6.<.s.1.l.%.%.%.>.=.+.*.b.AX,X[ T U D k p d e r 3 1 w w ",
"; ; ; 3 r e d y M c S T 3.cXsX;.=.>.1.1.e.y.h.u.h.u.f.M.p.1.H.mXNXG.6.6.y.u.,.i.t.t.w.,.>.>.@.=.4.iXcXz.T F A y p d r e 4 3 3 % ",
"; ; 1 1 e e i j B h J ..K.MXI.5.=.,.1.r.i.h.f.d.B.u.Z.N.a.m.m.-X:Xm.p.p.y.u.h.d.r.r.t.t.r.1.,.>.4.P.xXY.( S A j p d e e 3 3 1 1 ",
"; ; 1 3 r d p j k A W O.1XxX7.;.>.w.t.i.h.f.B.N.~.C.C.C.N.Z.N.p.m.V.1.m.Z.f.{.d.d.h.j.u.i.t.y.1.7.7.gX5X..T F C f p d r e 3 1 1 ",
"; 1 , e e a s k k W ! K 5XcX7.6.w.w.t.h.f.B.Q./.C.'.C./.).N.C.Z.m.N./.N.~.~.d.~.x.B.g.j.u.d.u.e.5.9.sXgX..R I C N p d e e 4 1 1 ",
"1 1 1 r r d l m n S ! ( iXsX5.5.1.w.t.j.g.g.!.(.(.(.`.`.`.).).).).).).)./.(.!.^.^.C.g.g.g.d.r.u.6.7.sXgX+.T E B N f a d r e , ; ",
"1 1 ; 4 e d p j C S T ( 4XhX7.;.,.w.r.j.g.B.!.(.(.`. X|. X|.|.`.|.`.`.`.`.(.(.(.^.^.Q.B.g.j.d.y.8.8.sXgX .R I C N p a e e , 1 ; ",
"1 ; 1 3 r d s j A B R { 2XcXc.4.%.w.r.j.g.B.^.(.`. XXXXXXXXXXXXX X X X X X X].].[.^.^.Q.Q.g.d.u.8.c.sX4X.._ S B n p d e r 3 1 ; ",
"1 1 1 4 r u s j j B ^ ..U.VXP.4.,.%.r.i.g.C.(.`. X.XoX+X@X@X@X@X#X#X#XoXoXoX.X.X].`.(.~.Q.Q.d.u.7.A.lX5X .{ T V N k p r 4 5 2 1 ",
"% 1 2 w 6 u s l j n ~ ! J.zXW.o.>.,.r.u.g.~.(.`..XoX%X&X&X9X7X7X@X+X+X+X=X+X+XoX X].'./.!.B.d.u.5.E.NXL. .R E V M j i u 6 3 2 > ",
"% % 1 1 4 t a x N B S I q.jXpXc.>.>.1.u.h.B.(.(. XoX+X&X9XqXqXqX&X&X&X&X%X+X+XoX X X(./.C.f.u.e.c.3XxX0.{ R T B k g d 4 4 2 2 % ",
"% % % 2 6 u u y M n S Q o.,XjXP.=.>.1.u.h.B./.(. XoX%X9XqXqXtXqX9X&X&X&X&X@X+X+XXX X'./.~.f.u.e.G.kX3X:.} / V V k g t 8 7 2 * % ",
"% % w 2 6 6 u s k N U [ [ J.VX2X;.<.6.u.B.B.^.[..X%X*XqXwXtXtXtX0X9X0X9X9X&X@X+XoXOX X'.~.B.a.p.;XNXY. .( X.B D z j i 0 6 7 2 * ",
"& > > 2 6 0 8 i p D D I [ z.5XAXb.v.6.e.j.x.x.[..X+X9XqXqXqXwXwXrXrX0X9X&X@X@X#XoX=X(.[.'.f.a.M.xX6Xk.O.! W F k z l i d 6 3 , * ",
"- - > > 2 7 0 u d p N U ~ ] K.jXiX7.<.y.r.x.^.[.].+X@X9XqXqXwX0XrXrX9X9X9X@X@X+X*X]..X[.V.m.M.:XxX;X-.| _ E C C z x i e 3 1 * & ",
"& - - > 2 w 6 8 a t N U Q I o.,XAXE.=.1.d.j.Q.(.].XX@X7XqX0X0X0XwXqX9X&X9X@X&X+XoXoXOXC.m.m.G.mX6Xk.} ( X.P B C j y t 4 3 ; - $ ",
"= : > > 2 3 0 8 a j m n I Q { 3.gXzXA.@.u.d.~.C.`. X#X@X9X9XwXqX9X9X7X9X9X*X&X%XXX#X(.D.n.H.dXkXk.<.+.) R L C z l y t 8 4 2 > & ",
": : : , 2 2 7 7 u b m N A ~ ! { K.jXiXk.6.p.V.C.).|.OX#X@X9XwXqX8X8X9X9XeX*X*X%X@X|.D.S.M.aXCXI.=.=.-.| W L Z z j p d e 5 > < & ",
"= : : > 2 2 6 6 4 s l m C A T ..o.Y.MX3X5.c.p.F.F.).`.OX+X*X0XwX8X8X8X9X9X*X%X+X#XD.S.c.pXCX3X9.2.@.&.` W L c z g i 4 4 4 < > - ",
"= : & * 2 2 w 7 4 8 i l M B V W { :.4XhXE.M.7.m.N.C.).|.oX%X0XwX9X8X9X9X*X&X%XXXD.D.S.E.nXfX9.8.1.@.) ) K v h x i t e 3 > > & & ",
"# - & & % ; 2 2 2 6 4 t m G V v T } q.gXbXG.n.8.M.Z.~.'. X%X*X0X9X@X&X&X*X&X#X|.R.c.R.NXfXH.p.>.>.@.O.( L Z z l i t 4 4 , > & & ",
"# = & : > > 2 2 6 6 b b b b c G R `  .P.NXbXG.8.a.y.Z.[.].oX*X*X&XeX*X%X*X+X|.D.S.E.vXkXT.8.f.1.,.#.O.K Z C z s d e e , < < $ # ",
"# # & & * > > > , 5 5 6 0 b z G J R { o.P.hXfXI.1.a.u.N.OXoXXX*XyX+X&XyXXX_.D.S.R.nXkXE.8.e.e.u.%.O./ K Z z x u r e e 3 - - $ $ ",
"# # # $ & > > > , , 5 r 0 b b z S S {  .{ L.lXhXH.h.a.m.C. XoXoXoX%XoX.X|.D.D.$XnXbXE.4.s.u.w.t.#.O./ V c x i 0 e 5 , , - & o o ",
"# # & $ & & > : , , , , 0 0 0 H c S W _ ( #.L.lXlXH.6.V.C.C.|.OXoXoX(._._.V.$XvXnXI.4.5.s.i.w.%.&.K P V h x u 6 5 r , ; - & o o ",
"# # # & & : : : , , , r r r a m j Y Z P | ` #.L.lXhX-Xc.n.V.F.'. X`._.F.m.:XvXfXI.8.6.s.@.,.l.&.&.K P Z z i 0 r e , , < - $ o o ",
"o # # & & : : : = < , , r r i s p M C Z P R ` 3.b.dXNX:Xn.n.V.m.V.F.S.S.uXnXfXH.6.y.i.w.,.-.#.| K K v z x q 6 6 , , < - - & o o ",
"o o o # & & : : < < < , r r e a f d C G v v _ O.o.b.dXZXuXn.8.m.M.c.M.aXZXaXn.6.y.u.w.%.l.#./ _ P P v x t 8 4 , , < < - % $ $ o ",
"o o o # # = : = = = = < , , r e e p x x c L K T o.o.b.pXNXaXH.6.7.R.fXNX:XA.8.6.w.1.,.$.O.( R S P v h x 9 4 , , < < < - + o o o ",
"@ @ @ @ # # # # : & & > > , , 6 r f f f b C F T ! o.o.;.;XMXkXI.;XlXxX}.6.<.<.2.2.2.@.O.| ^ T A z x x u 4 6 2 , & & : # # o o o ",
"# @ @ @ # # # = # = & & : > > , 6 a a f l H C F S ! { { :.I.sXCXbXaXT.;.>.2.2.%.@.#.| _ W L F B z x u 0 4 3 > < & & # & # o o o ",
"@ @ @ @ # # # # # # & & & : : > 5 6 6 b i x z C A J ^ .. . .0.1X1Xk.=.=.-.=.#.) ` _ / L F V B g y 9 8 w 3 ; > : & - # # . . o o ",
"@ @ @ @ @ # # # o & o & & & : * 2 2 6 6 0 i g h C B S R ' { {  . .( } O./ / O./ K K P V c k h y 9 4 w 3 1 > < - # # @ # o . . $ ",
"@ @   X X X + @ # o # o & & & & > 7 7 7 7 q q x g h c V S ^ ^ ! ! R _ R P / _ P P v v c k x x 9 4 3 3 1 ; < : - # # @ + o . . . ",
"@ X   X X @ @ @ # & # & & & & & * * > 7 7 7 0 q x g z C Z k B I L V P E L P v c v c h x 9 q 8 w 3 1 ; > > - - = # # @ + o + . . ",
"X X     X @ @ + & @ & & # & & & * * * * 7 7 7 7 q q q 9 y g M G D c h h c h h G h x q q 0 0 6 3 ; < - > - : # # # # . . O . . . ",
"X X     X o @ . o o # # # # = & & & * * * * 2 7 w 7 0 q t l p 9 t z l g z g 9 x x 9 8 0 6 3 2 , ; - - - : = # @ # # . O . . . . ",
"          @ X X @ @ o @ @ # # # = = : & : * > 2 2 3 2 6 4 6 4 u t 9 t 8 8 t 8 t 4 4 3 3 1 , < : - & = # # # # # + @ O X O     O ",
"          @   X @ = o o # # # # = = = : : : : : > 2 2 3 5 6 6 r 6 4 r r 4 4 4 4 4 3 1 , ; < < = = = # # = + # # @ @ O         O ",
"          @ X X @ @ @ @ @ @ @ # = = = : : : : : > > 2 > 5 5 3 5 5 r 5 5 5 3 5 5 5 , ; < < < = = # # # # @ @ @ @ @ @   @         ",
"          +     @ @ @ @ o @ # @ = # = = = : : : - - ; - - < ; , < < < < , ; , ; < < - < = = = = # @ @ # O @ @   @               ",
"                X X X X @ @ @ @ o o # # # # + - & - - - $ * - - , = : - < - < - - - - = = : # o @ @ @ @ .     .                 ",
"                X X X X @ @ @ @ X X o o # # & + & + $ & % & % - - - - - - $ - $ & & # # # # # X @ @ @ X                         ",
"                X X X X @ @ @ @ X X . o . # o % $ % & $ $ % % $ - = = $ & # + $ $ . o o # # o X X X X X .                       ",
"                    X @ @ @ @ @   . . o . . o o o o % o $ $ % $ $ = - & + $ $ + o . o o o o X X . X   X                         "
};
