/* XPM */
static char *_42dea2f7d6e4876837c97dbdeedeec4OY5nfbaVwCoZ0BRN[] = {
/* columns rows colors chars-per-pixel */
"64 64 216 2 ",
"   c #0E021C",
".  c #120217",
"X  c #13011E",
"o  c #0F0422",
"O  c #150223",
"+  c #190126",
"@  c #16022B",
"#  c #19022B",
"$  c #160031",
"%  c #1C0133",
"&  c #1D013B",
"*  c #1B053A",
"=  c #200335",
"-  c #22023C",
";  c #250A3B",
":  c #26063A",
">  c #1D0043",
",  c #1F0048",
"<  c #240143",
"1  c #290245",
"2  c #260941",
"3  c #2A0A44",
"4  c #25014A",
"5  c #29014A",
"6  c #2A004E",
"7  c #2C024B",
"8  c #2A0A4C",
"9  c #31044D",
"0  c #2F1449",
"q  c #260250",
"w  c #2C0051",
"e  c #2D0252",
"r  c #2E005A",
"t  c #2D0855",
"y  c #330254",
"u  c #340C56",
"i  c #34015B",
"p  c #39015D",
"a  c #350B5C",
"s  c #3A0A5A",
"d  c #2F0061",
"f  c #360162",
"g  c #3B0163",
"h  c #3D006A",
"j  c #3D0B65",
"k  c #3D1367",
"l  c #3C0072",
"z  c #40045E",
"x  c #410365",
"c  c #410A65",
"v  c #44026C",
"b  c #4A006E",
"n  c #430B6B",
"m  c #4C0B6B",
"M  c #43116B",
"N  c #4C1C6F",
"B  c #461566",
"V  c #450173",
"C  c #4B0374",
"Z  c #460A71",
"A  c #4C0A73",
"S  c #46007A",
"D  c #4C037B",
"F  c #4E0C7B",
"G  c #530477",
"H  c #520C76",
"J  c #52037C",
"K  c #530B7B",
"L  c #590B7C",
"P  c #58077D",
"I  c #4D1072",
"U  c #4E1977",
"Y  c #55147A",
"T  c #551C7B",
"R  c #4D0082",
"E  c #530284",
"W  c #590484",
"Q  c #540B84",
"!  c #5B0B84",
"~  c #550389",
"^  c #5A038E",
"/  c #5A0A8C",
"(  c #550A8A",
")  c #4F1480",
"_  c #5B1282",
"`  c #5B1982",
"'  c #5D138B",
"]  c #5B1689",
"[  c #5C0592",
"{  c #5D0B93",
"}  c #5E1292",
"|  c #630C8A",
" . c #65138A",
".. c #641A8C",
"X. c #681E8E",
"o. c #641789",
"O. c #640295",
"+. c #610C93",
"@. c #650E9A",
"#. c #690D9A",
"$. c #66069A",
"%. c #661A94",
"&. c #6B1D95",
"*. c #64139B",
"=. c #69149D",
"-. c #6A1B9B",
";. c #691494",
":. c #71109E",
">. c #5A2986",
",. c #64248C",
"<. c #6B2D8E",
"1. c #662388",
"2. c #6A348F",
"3. c #673286",
"4. c #642494",
"5. c #6E2B9B",
"6. c #6F2699",
"7. c #702D96",
"8. c #74289A",
"9. c #6D3996",
"0. c #783999",
"q. c #6E0AA0",
"w. c #760DA7",
"e. c #6D16A3",
"r. c #7717A9",
"t. c #7F1BB1",
"y. c #772CA2",
"u. c #793DA5",
"i. c #7C31AE",
"p. c #7B38AC",
"a. c #78439D",
"s. c #7A49A3",
"d. c #852BAF",
"f. c #8234AC",
"g. c #823BAE",
"h. c #8030A3",
"j. c #832CB4",
"k. c #882DBB",
"l. c #883BB8",
"z. c #834BAC",
"x. c #8647AF",
"c. c #8656AB",
"v. c #8B43B3",
"b. c #8B48B5",
"n. c #8A49B9",
"m. c #914CBD",
"M. c #904DB6",
"N. c #8E54B6",
"B. c #9151BF",
"V. c #9360BC",
"C. c #993CCC",
"Z. c #9846C9",
"A. c #9B5DC4",
"S. c #9956C9",
"D. c #A14ACC",
"F. c #A153C7",
"G. c #A55BC9",
"H. c #A75AD4",
"J. c #A446D8",
"K. c #9C69C3",
"L. c #A668CA",
"P. c #A573CD",
"I. c #AA63D3",
"U. c #A969D2",
"Y. c #A762D6",
"T. c #B36AD7",
"R. c #B163DE",
"E. c #B36CDB",
"W. c #B765DA",
"Q. c #AC78D3",
"!. c #B676DC",
"~. c #B459E6",
"^. c #BB6CE6",
"/. c #BA72E4",
"(. c #BA74E9",
"). c #C47CED",
"_. c #C77AEB",
"`. c #CB75F4",
"'. c #C679F7",
"]. c #D27EFE",
"[. c #D778FE",
"{. c #B989DC",
"}. c #B686DA",
"|. c #BB87E2",
" X c #C384EA",
".X c #C788ED",
"XX c #C895EA",
"oX c #CD85F3",
"OX c #CC8AF3",
"+X c #CC84FC",
"@X c #CE8BFD",
"#X c #C585F4",
"$X c #D586FF",
"%X c #DB83FF",
"&X c #D48CFD",
"*X c #DB8CFF",
"=X c #D589F6",
"-X c #CB92F5",
";X c #D292FD",
":X c #DB92FF",
">X c #DB9DFF",
",X c #E48BFF",
"<X c #EC8EFF",
"1X c #E294FF",
"2X c #EC93FF",
"3X c #E49BFF",
"4X c #E89EFF",
"5X c #F099FF",
"6X c #D5A1FF",
"7X c #DDA2FF",
"8X c #DDAAFF",
"9X c #E4A2FF",
"0X c #E9A9FF",
"qX c #F8A9FF",
"wX c #E8B1FF",
"eX c #F2BFFF",
/* pixels */
"X X . X X X X X X . . . X X X o . . X X X X O O + + X + + + + + + + O @ O + O O O O X X X X . X X X . X . . X X . X X X X X X X ",
"X   X   X o X X o . o X X o X X X X X X X X O X X O + X + + + + O + + + @ O O + O X X X X X X X X . X X X X X X X X . X X X X + ",
".     X X o X X . o . X o X X o . X . X X X X O + O # O # + + + @ @ @ @ @ + @ + O O O X X X X X X X X X X X X X X X X X X X X X ",
"X X   X X X o X o . o X X X o X + X O O + + + X O + O # + + # # @ @ @ + + @ @ O + + O O + X X + X . X X X X X X X X . X X X + X ",
"X   . X O X X X X X X X O X O O o O + o O O + + # # # # + # # # @ % # # @ @ # # + + O O O + + X X + X + X X X O X X X X X X X X ",
"X . . X     X X o o X O O o O o o # + + O # + # # + # # # # # # # @ # # @ @ @ + # + + + + O + + X X X X + X X O X X . X X X X X ",
"X X . X O O X X X X X o + + O O o + + # @ # # # # + ; # # # = # % % # % % # # # # # # + + + + + + + X + X O X X X X X X X X X X ",
"X . X X X X O X X + O O O o O # + @ # O # # # # ; + # @ ; # = # % % % # % % % # # # # # + + # + + X + X O X X O X X X X X X X X ",
"X X X X . + X + X O O O # # + # @ @ @ # @ # # % % % % % & = % % % % % % % % % % # # # # # # # # # o + o O X O X X X X X X X X X ",
". X X . X X X X X O O o o # # o @ @ @ # $ % # * # % % % = % & & * % % % % % % * = % = # # # # # + # + + O O O O X + X X X X X X ",
". . . + X + + X + + + + @ + # # @ % @ % % % % % % % % & & & - - * * & % & % % % % % % # % # # % # o # O O O O O X X X + X X X X ",
". + . . + . X X O O + + @ # + # @ $ % $ % % % % % - & % & & & - & & & & % & & * % % % = # % % # # # + @ @ O O O + X X X X X X X ",
". . . + X X + X O O # o # @ # # % % % % % % % - - & & & & - & & - & & - & & - & - % % = % % % # # + + # @ O + O + X X + X X . X ",
"+ . . . X + X + + + O # # # # # % % % % & * - * - < - < - > > - < > - > & - & * % - % % = % = % # # # # O @ O O X + X X X X X X ",
"+ . + . X X + X + O # # @ # # * % % % % & : & < & > < 2 1 1 < < & < & & < * - : & & % % % % % % @ o o ; # O + O X O X X + X . X ",
". . . + X X O O O # @ @ @ # # * * % & & & & & < < < 4 7 7 e 5 7 < > > < < > < < - - - - = % % % = ; # o O + + + O O X X X . X X ",
". . X + O O # O + + # @ % % % * * $ * 2 * > 4 w w w n I H H y p 4 , > , 4 u 4 5 * a * 1 - - % * * # # # + + + + + + O O O o     ",
". . X X + + # # # + @ # # % * * * % ; > < 4 5 w c 3.OXOXF...P p , q q q e , p i j * 5 1 % - 2 $ * * * % = + + + + + + + o O     ",
". . . + O @ # O # # # = % ; * & * & < & < e 4 i z.7XA.x.:X&Xo.x r , a q d >.P.{.K.N 5 1 & % 2 % & * # % + + + + + + X X O o o X ",
". + + X @ @ # # = # # # % * ; & & < < , 4 t e T -XM.v b o.!._.v q k q t a.8XP.z.Q.{.B 7 1 & & * * * * # + = + + ; + + + O o     ",
"    o @ @ @ @ @ # # # % % & & > 4 1 1 7 w a i z.-Xf g h C _ *X7.k q r >.eXs.r i B XXc.8 > < & > > * % % # + # # # + @ O @ O X   ",
". X O o @ @ @ $ % # # = % & < 1 1 4 < e r g p U.!.f V V C C oXM.r M h Q.K.h f i < c.}.t 7 & & 2 > * * % # # + + # # @ + @ O X   ",
"X X o @ @ @ $ @ % # % % - < 1 5 4 y y y i h i U.A.A v h i V T.Y.Z r U 7X>.r Z i j a.{.u u > > , > * * * % # # # # # # + + + O X ",
". X o @ @ @ # $ # # % % - 1 7 y p n c h h Z i K..XV D V C C /.I.h V u.;XA Z q h r V.|.i 8 5 8 > > > > * % # # # # # # + O + X X ",
"X X O O @ @ * @ @ ; * @ < 7 9 U U.7X XU.` F f 5.:X] V V D V &Xn.S f p.@XF f f V d .XN.r t > , 7 > 4 & * % + # # # # % @ + + X X ",
"X o o @ @ @ @ @ * @ * 3 7 & N |..X` b./.4X8.F Q +X(.V E ] g.3X%.h Q y.@XQ A h V s.-XU t r a 4 4 < 5 & % % = = # # # @ @ + + + X ",
"X O O @ @ @ # $ % % : 2 7 9 2.7XH h A v l.0X6.V ' $X$Xi.Z.qXn.R } V Q +XY.D V 5.0Xz.n j 5 4 r 4 4 > < & % = = # # % @ @ + + X X ",
"X O o O @ @ $ $ % : - & 7 j 0.OXF L x v S ^.+X( R %.^.1X`.l.D E l ( l i.4X#X(.>Xm.Z f f 2.K.Q.3.a > 1 < % # = = % @ @ @ + + X X ",
"O O O @ @ @ $ @ % % : 1 9 y <.9X6.v b J Q W 1X-.( E S / ( V =.E ( R R ( ( S.S.4.V Z n !.wXQ.M.wXs.7 < ; - # = # @ @ $ $ O O O X ",
"X O o @ @ @ $ @ # # - 7 y y 1. XI.! C g V %.'.D.S { E R *.=.h E R R ~ R R S l S V g #X XT p j a.XXB < - 3 % = # $ $ $ $ @ O O X ",
"X O O o @ $ $ $ # : 1 - y c H 8.9Xf.G ! J V $Xl.E ~ ~ { R =.@.=.*.{ } R } l R C V S.>Xh i x 7 T wXB 7 = ; = ; @ $ @ $ o O o O   ",
"O O O @ @ @ @ $ % ; 1 - y p y H v.4XH.6.W R.,X/ ( ~ [ [ C.$X,X,X].~.@.*.( V D l F ;Xb.g b i x <.XXz 9 - : $ ; @ $ $ @ @ @ O o O ",
"X X + o # @ # # % - : 7 y y p g A 4.).3X*X,Xd.J / ( +.~.2XJ.k.t.C.[.<Xd.W | C V } 3X..V v b L !.L.B : z - 2 = * # @ @ @ o @ O o ",
"+ + o + # + % % = - 1 7 9 y p g g H C X.y.C J W / { Z.$Xt.O.[ w.w.O.~.<X;.W v D 4.:X%.V C G G.9XT : : : % - % # $ @ @ o @ o O O ",
"o X X + o # # = = - < 7 7 y p p g K v v C  .W J D j.qXk.$.$.O.O.O.r.w.[.`.W V V l /.#X6.6.=X3Xh.m 1 : : - 2 % % # @ @ @ O @ O O ",
"X X X o # # # % % - < 1 9 y y p n i b P C G G &.H.2Xl.e.[ $.^ q.$.~ O.d.].&.J S ( Q (.:X*XT.1.m z 9 9 : & - # # $ # @ o o O O o ",
"X X + + @ # # % % - - 1 9 y y p h C G b | | m.[.].Z.{ R e.~ [ O.~ #.E | `.*Xp.h d S F ] K x y p 1 : - * & & @ * # O @ O O O O O ",
"X + X o O @ # % % - < 1 7 9 y p h i G G b `.,XD.$.{ ( { [ ~ w.E E $.W W J H.3X&Xp.F d f y x x 7 7 7 & - 2 - @ % # @ @ + @ + + O ",
"X X + O + @ # % % % - 1 7 9 y p x G v ! W.<X| W E R { [ D [ R #.@.D ( V Q J V Y.7Xn.) V i i 7 7 - < * & & % @ O @ # # + + + O O ",
"X O X O + + # # % = - < 1 9 y y m y L h.5X8.:.E W E R ( { ^ +.E R +.S J D F A l 4.wXA.f c 5 y 1 1 < & & % % ; # @ # + O + O + O ",
"O X X O O # O # = % = - 7 9 y y i A H W._. .P W E E E ~ ~ R E ~ R R E D V v C F h 4.6X>.i 5 < 7 > * & * = # # # + + + + O O O O ",
"X X X + O + # + % % - - : 7 7 y m i Y _.F.| P W J R R D E ( E J / D h V C v v h f h -Xs.r u 7 - & * * % = = # # + + + O O O + O ",
"+ + X X + o o + % % % - 1 7 7 9 4 A x E.^.P G G D D D Q E D J E V S D V V C V h F l 6X>.i t 1 & * * * % % # # # # + O O O O O O ",
"X X X X X X o ; # % % - < 1 7 9 y i g L._.x C J V J E l V ' ..Q S S S A h p p h i s.6Xk t * & - * * % % % # # + + + O X O   O O ",
"X X X + + + + + # % % - - 1 7 5 w e g I oXT.L C ! v D g.).:X1X*XS.4.h V A v v m x.6X9.a 4 * 2 * % * $ % = # # + + + X O X o O o ",
"+ O X X o X # # @ % % % - < < 4 t 4 s x 7.:X_.f.&.g.(.:XE.8.X.g.+X$X Xn.X.,.M.!.;XA.r , 4 5 * $ * % % $ # # + # + + O O O   O o ",
"X X X X + X o # @ # # % - - 1 < t a 4 j p o.G.:X:X:XE.6.C b H v Z p./.(.=X3XOXL.,.< j w 4 * @ $ % % % % # # + + + + O   O o o o ",
"X X o + X o o # + # % % % - - < 4 4 e 9 p x p H ` v h n v g p v h g h I Y I x p y i 4 w * * 0 @ $ $ % $ # # + + + O O O o   O o ",
"X X X X X X O O # + # ; # ; ; ; < 1 7 7 7 y 9 y p p p p p p p p f f i i y t t w 4 5 < < : * * * $ $ # @ @ O @ + + O X X X X X X ",
"X . X . o O O O O O O # O # o # - - < 1 1 7 9 9 9 9 y y y y p y u t t q q 7 4 2 < < & & % % $ @ # @ # @ O @ O O O X O X X X X X ",
"X X X o o X O X O O # O # # # # - - - < 2 7 1 7 1 7 9 9 y 9 y e e 5 8 8 7 1 1 < & & * % $ % # # @ @ O @ @ O + O O X X X X . X X ",
"X X X . X X O + O O O # + # # # % = - - < - 2 7 7 7 7 7 7 7 7 5 7 7 5 5 < < < - & & % % % $ * # # # @ O O O O O X O O X X X X X ",
". o X X o X X X X + + + + + # # % % % & - - < ; : 1 7 1 1 7 4 1 5 < 1 < - < - - % % % % # * # # O @ @ O @ O O O + X X X X X X X ",
"X X o . X o X + + + o # + + # # % % % % % & & - - - - - 1 : 1 < - - < & - - = & % % % # # # # # @ O O O O O O O X X + X X X X X ",
". X . X X o X X o X + X + o o + @ @ @ % # % * % & - - & - - - - - % % & = = % = # # # # # + @ + O O O O O O X X X X + X X X X X ",
"o X o X o X + X X + X X + + + o O @ @ @ # # @ $ % # % % % % % % % % # % # # # % # # # + # O + O O O # O O O O O X X X X X X . . ",
"  X   X . X + X X X + X X X X + O O @ @ @ @ @ @ # # # @ * # % % # # # # # # # # @ # + O + O O O + + X + X X X . + X X X X X X X ",
"X X X X X X X X o X X X + X + X O o o @ O O O @ @ @ @ # @ # # # # # + # # + # + O + O + + O O O X X + + X X + + X X X X X X X X ",
"X   X X X X X X O X X X X X X X O O O O O o @ @ @ @ @ @ @ @ % + + + @ @ @ O + O + O O O O O O O O X X X X + X X X X X X X X X X ",
"X X X X X X + X O X X + X X + X O O o o O @ O O o o o @ @ o o # + O O O O @ O O O O + O O O O X X X X X X X X + X + X X X X X X ",
"X X o X X X X . X . X . X + . X O O X X o O O O @ @ O o o @ # o O O O X O O O o O O O O O O O X X X X X X X + . X X X X X X X X ",
"X X o X X . . + X . + + + . X X X X O O O O   O o o O O O O o O X X o o O X O O O O O X O O O X X X X X X X . + X X X X X X X + ",
"X X X X X X X X + . X X + . X X X O X O X O X O o O o O O o o o X X o X X X X X O   O O O O X + X X X X X X X X X X X X X X X X ",
"O o   o X X . X X X X X . . + X X O O X O O O O O O O o O o + X o X X X o o X X O O O O O O + X X X X X X X . X X X X X X X + X "
};
